<?xml version="1.0" encoding="UTF-8" standalone="no"?>
<!-- Created with Inkscape (http://www.inkscape.org/) -->

<svg
   width="469.21539"
   height="308"
   viewBox="0 0 124.14657 81.491671"
   version="1.1"
   id="svg5"
   inkscape:version="1.2.2 (b0a8486541, 2022-12-01)"
   sodipodi:docname="ClefHeaderWhiteL.svg"
   inkscape:export-filename="../public/img/ClefHeaderWhiteL.svg"
   inkscape:export-xdpi="96"
   inkscape:export-ydpi="96"
   xmlns:inkscape="http://www.inkscape.org/namespaces/inkscape"
   xmlns:sodipodi="http://sodipodi.sourceforge.net/DTD/sodipodi-0.dtd"
   xmlns="http://www.w3.org/2000/svg"
   xmlns:svg="http://www.w3.org/2000/svg">
  <sodipodi:namedview
     id="namedview7"
     pagecolor="#ffffff"
     bordercolor="#000000"
     borderopacity="0.25"
     inkscape:showpageshadow="2"
     inkscape:pageopacity="0.0"
     inkscape:pagecheckerboard="0"
     inkscape:deskcolor="#d1d1d1"
     inkscape:document-units="mm"
     showgrid="false"
     inkscape:zoom="0.52331226"
     inkscape:cx="526.45432"
     inkscape:cy="511.16708"
     inkscape:window-width="1867"
     inkscape:window-height="1011"
     inkscape:window-x="0"
     inkscape:window-y="0"
     inkscape:window-maximized="1"
     inkscape:current-layer="layer1" />
  <defs
     id="defs2">
    <rect
       x="218.89665"
       y="-14.863353"
       width="798.25598"
       height="126.39533"
       id="rect3375" />
    <rect
       x="7.0779476"
       y="75.835152"
       width="461.07773"
       height="418.61005"
       id="rect1478" />
  </defs>
  <g
     inkscape:label="b"
     inkscape:groupmode="layer"
     id="layer1"
     transform="translate(-10.381782,-40.222579)">
    <g
       aria-label="ð„š"
       transform="scale(1.5979671,0.6257951)"
       id="text1484"
       style="font-size:97.1129px;font-family:'Noto Mono';-inkscape-font-specification:'Noto Mono';opacity:1;fill-opacity:0.994334;stroke-width:7.19814"
       inkscape:label="=">
      <path
         d="M 84.187188,107.79643 H 6.4968686 v -2.33071 H 84.187188 Z m 0,-18.645678 H 6.4968686 v -2.33071 H 84.187188 Z m 0,74.194258 H 6.4968686 V 161.0143 H 84.187188 Z m 0,-18.45145 H 6.4968686 v -2.33071 H 84.187188 Z m 0,-18.64568 H 6.4968686 v -2.33071 H 84.187188 Z"
         id="path3735" />
    </g>
    <g
       aria-label="î"
       id="text1594"
       style="font-size:45.1556px;font-family:'Noto Mono';-inkscape-font-specification:'Noto Mono';opacity:1;stroke-width:3.34701"
       inkscape:label="S">
      <path
         d="m 46.52757,91.383876 c 0,3.206047 -1.309513,6.502406 -4.51556,7.811919 -0.948268,-5.418673 -2.167469,-12.598413 -2.483559,-14.58526 4.064005,0 6.999119,2.754492 6.999119,6.773341 z m -6.412096,8.353786 c -0.903112,0.180622 -1.761068,0.270938 -2.619025,0.270938 -6.457251,0 -11.966234,-4.515565 -11.966234,-11.334061 0,-5.508983 3.883382,-10.430943 7.857075,-13.862769 0.767645,-0.677334 1.490135,-1.309513 2.167469,-1.986847 0.4064,2.438403 0.722489,4.560716 1.038578,6.412096 -4.109159,1.219201 -6.908807,5.554139 -6.908807,9.798765 0,3.160892 2.483558,7.49583 6.096007,7.49583 0.361244,0 0.767645,-0.180622 0.767645,-0.587023 0,-0.4064 -0.451556,-0.632178 -0.993423,-0.993423 -1.761069,-1.083734 -2.754492,-2.25778 -2.754492,-4.470404 0,-2.754492 2.032002,-4.967117 4.696182,-5.599295 z M 36.141781,53.317703 c 0.406401,-1.806224 2.483558,-6.547562 4.83165,-6.547562 0.677334,0 1.761068,2.212625 1.761068,5.328361 0,4.696183 -3.476981,8.21832 -6.592718,11.288901 -0.270933,-1.806224 -0.496711,-3.567293 -0.496711,-5.463828 0,-1.670757 0.135467,-3.206048 0.496711,-4.605872 z m -9.482676,60.282727 c 0,2.98027 2.302936,6.90881 8.398942,6.90881 2.122313,0 3.973693,-0.54187 5.599295,-1.53529 2.438402,-1.71591 3.07058,-4.69618 3.07058,-7.54099 0,-1.76107 -0.270933,-3.79307 -0.722489,-6.36694 -0.135467,-0.90311 -0.406401,-2.25778 -0.677334,-4.01885 4.425249,-1.444975 7.721608,-6.050846 7.721608,-10.701873 0,-6.818496 -4.83165,-11.424367 -11.424368,-11.424367 -0.451556,-2.709337 -0.903112,-5.373517 -1.309512,-7.902231 4.786494,-5.012272 8.082853,-10.656722 8.082853,-17.836462 0,-4.10916 -1.264357,-7.450675 -1.986847,-9.076276 -1.083734,-2.302936 -2.393247,-3.883382 -3.206047,-3.883382 -0.31609,0 -1.715913,0.541867 -3.206048,2.302936 -2.889959,3.431825 -3.70276,9.211742 -3.70276,13.004813 0,2.438402 0.225779,4.651027 0.993424,9.708454 -0.04516,0.04516 -2.393247,2.438403 -3.341515,3.206048 -4.10916,3.838226 -9.798765,9.302054 -9.798765,18.333174 0,8.444098 7.360363,15.081976 15.759305,15.081976 1.309512,0 2.528713,-0.13547 3.567292,-0.31609 0.857957,4.33493 1.354668,7.49583 1.354668,9.88907 0,4.69619 -2.393247,7.17974 -6.953962,7.17974 -1.083735,0 -2.032003,-0.22577 -2.122314,-0.22577 -0.04516,-0.0452 -0.135467,-0.0903 -0.135467,-0.13547 0,-0.0903 0.09031,-0.13547 0.225778,-0.18062 2.122314,-0.31609 4.244627,-2.12232 4.244627,-5.01228 0,-2.4384 -1.85138,-5.01227 -5.23805,-5.01227 -3.160892,0 -5.192894,2.57387 -5.192894,5.55414 z"
         style="stroke-width:3.347"
         id="path3732" />
    </g>
    <g
       aria-label="î‚„"
       id="text1602"
       style="font-size:45.1556px;font-family:'Noto Mono';-inkscape-font-specification:'Noto Mono';opacity:1;stroke-width:3.34701"
       inkscape:label="4_">
      <path
         d="m 104.93103,73.424474 v 3.341514 h -3.74791 c -0.31609,0 -0.63218,0.270934 -0.63218,0.632179 v 0.857956 c 0,0.361245 0.31609,0.632179 0.63218,0.632179 h 13.68214 c 0.36125,0 0.63218,-0.270934 0.63218,-0.632179 v -0.857956 c 0,-0.361245 -0.27093,-0.632179 -0.63218,-0.632179 h -4.064 v -3.341514 h 4.064 c 0.36125,0 0.63218,-0.316089 0.63218,-0.677334 v -0.857957 c 0,-0.316089 -0.27093,-0.632178 -0.63218,-0.632178 h -4.064 v -7.179741 c 0,-0.270933 -0.13547,-0.496711 -0.31609,-0.587022 l -0.54187,-0.270934 c -0.0903,-0.04516 -0.13546,-0.04516 -0.22578,-0.04516 -0.0451,0 -0.0451,0 -0.0903,0 -0.13546,0 -0.31609,0.04516 -0.4064,0.135467 l -4.10916,3.747915 c -0.13546,0.135467 -0.18062,0.316089 -0.18062,0.496712 v 3.702759 h -5.238049 c 0,0 5.057429,-5.418672 10.385789,-12.553257 0.18062,-0.225778 0.22578,-0.451556 0.22578,-0.632179 0,-0.225778 -0.0903,-0.4064 -0.13547,-0.451556 l -0.99342,-0.993423 c -0.13547,-0.09031 -0.27094,-0.180622 -0.45156,-0.180622 -0.27093,0 -6.36694,0 -6.72818,0 -0.31609,0 -0.54187,0.270933 -0.58703,0.541867 0,0 -0.22577,3.341514 -1.39982,6.999118 -1.174045,3.657604 -2.528713,5.915384 -3.702759,7.586141 0,0 -0.135467,0.225778 -0.135467,0.496712 0,0.09031 0,0.180622 0.04516,0.270933 0.135467,0.31609 0.451556,0.812801 0.451556,0.812801 0,0 0.09031,0.270934 0.496711,0.270934 z"
         style="stroke-width:3.347"
         id="path3729" />
    </g>
    <g
       aria-label="î‚„"
       id="text1606"
       style="font-size:45.1556px;font-family:'Noto Mono';-inkscape-font-specification:'Noto Mono';opacity:1;stroke-width:3.34701"
       inkscape:label="_4">
      <path
         d="m 104.93103,96.432012 v 3.341514 h -3.74791 c -0.31609,0 -0.63218,0.270934 -0.63218,0.632174 v 0.85796 c 0,0.36125 0.31609,0.63218 0.63218,0.63218 h 13.68214 c 0.36125,0 0.63218,-0.27093 0.63218,-0.63218 v -0.85796 c 0,-0.36124 -0.27093,-0.632174 -0.63218,-0.632174 h -4.064 v -3.341514 h 4.064 c 0.36125,0 0.63218,-0.316089 0.63218,-0.677334 v -0.857957 c 0,-0.316089 -0.27093,-0.632178 -0.63218,-0.632178 h -4.064 v -7.179741 c 0,-0.270933 -0.13547,-0.496711 -0.31609,-0.587023 l -0.54187,-0.270933 c -0.0903,-0.04516 -0.13546,-0.04516 -0.22578,-0.04516 -0.0451,0 -0.0451,0 -0.0903,0 -0.13546,0 -0.31609,0.04516 -0.4064,0.135467 l -4.10916,3.747915 c -0.13546,0.135467 -0.18062,0.316089 -0.18062,0.496712 v 3.702759 h -5.238049 c 0,0 5.057429,-5.418672 10.385789,-12.553257 0.18062,-0.225778 0.22578,-0.451556 0.22578,-0.632179 0,-0.225778 -0.0903,-0.4064 -0.13547,-0.451556 l -0.99342,-0.993423 c -0.13547,-0.09031 -0.27094,-0.180622 -0.45156,-0.180622 -0.27093,0 -6.36694,0 -6.72818,0 -0.31609,0 -0.54187,0.270933 -0.58703,0.541867 0,0 -0.22577,3.341514 -1.39982,6.999118 -1.174045,3.657604 -2.528713,5.915384 -3.702759,7.586141 0,0 -0.135467,0.225778 -0.135467,0.496712 0,0.09031 0,0.180622 0.04516,0.270933 0.135467,0.31609 0.451556,0.812801 0.451556,0.812801 0,0 0.09031,0.270934 0.496711,0.270934 z"
         style="stroke-width:3.347"
         id="path3726" />
    </g>
    <g
       aria-label="î‰ "
       id="text1610"
       style="font-size:45.1556px;font-family:'Noto Mono';-inkscape-font-specification:'Noto Mono';opacity:1;stroke-width:3.34701"
       inkscape:label="b">
      <path
         d="m 75.958669,57.440077 c -0.270934,-1.761068 -1.354668,-3.431825 -3.657604,-3.431825 -2.25778,0 -3.567292,1.399823 -3.79307,1.670757 l 0.180622,-14.494948 c 0,-0.361245 -0.270934,-0.632178 -0.632178,-0.632178 h -0.541868 c -0.361245,0 -0.632178,0.270933 -0.632178,0.632178 l 0.225778,27.138516 c 0,0.361245 0.270933,0.632179 0.632178,0.632179 0.09031,0 0.270934,-0.04516 0.361245,-0.09031 0.180623,-0.09031 3.115737,-1.535291 5.554139,-4.289782 1.715913,-1.941691 2.393247,-4.154316 2.393247,-6.005695 0,-0.406401 -0.04516,-0.767646 -0.09031,-1.128891 z m -3.115737,1.761069 c 0,0.677334 -0.180622,2.754492 -1.309512,4.470404 -0.767645,1.174046 -2.302936,2.393247 -3.160892,3.070581 l 0.135467,-8.805342 c 0.09031,-0.4064 0.767645,-1.715913 2.573869,-1.715913 1.625601,0 1.761068,1.535291 1.761068,2.483558 0,0.225778 0,0.361245 0,0.496712 z"
         style="stroke-width:3.347"
         id="path3723" />
    </g>
    <g
       aria-label="î‰ "
       id="text1614"
       style="font-size:45.1556px;font-family:'Noto Mono';-inkscape-font-specification:'Noto Mono';opacity:1;stroke-width:3.34701"
       inkscape:label="b">
      <path
         d="m 63.384778,75.097029 c -0.270934,-1.761068 -1.354668,-3.431825 -3.657604,-3.431825 -2.25778,0 -3.567292,1.399823 -3.79307,1.670757 l 0.180622,-14.494948 c 0,-0.361245 -0.270933,-0.632179 -0.632178,-0.632179 h -0.541867 c -0.361245,0 -0.632179,0.270934 -0.632179,0.632179 l 0.225778,27.138516 c 0,0.361245 0.270934,0.632179 0.632179,0.632179 0.09031,0 0.270933,-0.04516 0.361244,-0.09031 0.180623,-0.09031 3.115737,-1.535291 5.554139,-4.289783 1.715913,-1.94169 2.393247,-4.154315 2.393247,-6.005695 0,-0.4064 -0.04515,-0.767645 -0.09031,-1.12889 z m -3.115736,1.761069 c 0,0.677334 -0.180623,2.754492 -1.309513,4.470404 -0.767645,1.174046 -2.302936,2.393247 -3.160892,3.070581 l 0.135467,-8.805342 c 0.09031,-0.4064 0.767645,-1.715913 2.573869,-1.715913 1.625602,0 1.761069,1.535291 1.761069,2.483558 0,0.225778 0,0.361245 0,0.496712 z"
         style="stroke-width:3.347"
         id="path3720" />
    </g>
    <g
       aria-label="î‰ "
       id="text1618"
       style="font-size:45.1556px;font-family:'Noto Mono';-inkscape-font-specification:'Noto Mono';opacity:1;stroke-width:3.34701"
       inkscape:label="b">
      <path
         d="m 84.519612,79.912558 c -0.270933,-1.761068 -1.354668,-3.431825 -3.657603,-3.431825 -2.25778,0 -3.567293,1.399823 -3.793071,1.670757 l 0.180623,-14.494948 c 0,-0.361245 -0.270934,-0.632179 -0.632179,-0.632179 h -0.541867 c -0.361245,0 -0.632179,0.270934 -0.632179,0.632179 l 0.225778,27.138516 c 0,0.361245 0.270934,0.632179 0.632179,0.632179 0.09031,0 0.270934,-0.04516 0.361245,-0.09031 0.180622,-0.09031 3.115736,-1.53529 5.554139,-4.289782 1.715913,-1.941691 2.393247,-4.154315 2.393247,-6.005695 0,-0.4064 -0.04516,-0.767645 -0.09031,-1.12889 z m -3.115736,1.761069 c 0,0.677334 -0.180623,2.754491 -1.309513,4.470404 -0.767645,1.174046 -2.302935,2.393247 -3.160892,3.070581 l 0.135467,-8.805342 c 0.09031,-0.406401 0.767645,-1.715913 2.573869,-1.715913 1.625602,0 1.761069,1.53529 1.761069,2.483558 0,0.225778 0,0.361245 0,0.496712 z"
         style="stroke-width:3.347"
         id="path3717" />
    </g>
  </g>
</svg>
