<?xml version="1.0" encoding="UTF-8" standalone="no"?>
<!-- Created with Inkscape (http://www.inkscape.org/) -->

<svg
   width="512"
   height="512"
   viewBox="0 0 135.46669 135.46669"
   version="1.1"
   id="svg135"
   xml:space="preserve"
   inkscape:version="1.2.2 (b0a8486541, 2022-12-01)"
   sodipodi:docname="SiteIcon.svg"
   inkscape:export-filename="../public/img/ToobAmp.png"
   inkscape:export-xdpi="96"
   inkscape:export-ydpi="96"
   xmlns:inkscape="http://www.inkscape.org/namespaces/inkscape"
   xmlns:sodipodi="http://sodipodi.sourceforge.net/DTD/sodipodi-0.dtd"
   xmlns="http://www.w3.org/2000/svg"
   xmlns:svg="http://www.w3.org/2000/svg"><sodipodi:namedview
     id="namedview137"
     pagecolor="#ffffff"
     bordercolor="#000000"
     borderopacity="0.25"
     inkscape:showpageshadow="2"
     inkscape:pageopacity="0.0"
     inkscape:pagecheckerboard="0"
     inkscape:deskcolor="#d1d1d1"
     inkscape:document-units="mm"
     showgrid="false"
     showguides="false"
     inkscape:zoom="0.39001828"
     inkscape:cx="-262.8082"
     inkscape:cy="914.05973"
     inkscape:window-width="1867"
     inkscape:window-height="1011"
     inkscape:window-x="0"
     inkscape:window-y="0"
     inkscape:window-maximized="1"
     inkscape:current-layer="svg135"><inkscape:page
       x="0"
       y="0"
       width="135.46669"
       height="135.46669"
       id="page548"
       inkscape:export-filename="../public/favicon.png"
       inkscape:export-xdpi="96"
       inkscape:export-ydpi="96" /><inkscape:page
       x="220"
       y="0"
       width="677.33331"
       height="381"
       id="page550" /></sodipodi:namedview><defs
     id="defs132"><clipPath
   clipPathUnits="userSpaceOnUse"
   id="clipPath518"><path
     d="M 0,1080 H 1920 V 0 H 0 Z"
     id="path516" /></clipPath><clipPath
   clipPathUnits="userSpaceOnUse"
   id="clipPath538"><path
     d="M 0,1080 H 1920 V 0 H 0 Z"
     id="path536" /></clipPath><path
   id="SVGID_1_"
   d="m 545,178 c 0,6.075 -4.925,11 -11,11 H -18 c -6.075,0 -11,-4.925 -11,-11 v -296 c 0,-6.075 4.925,-11 11,-11 h 552 c 6.075,0 11,4.925 11,11 z" /><circle
   id="SVGID_3_"
   cx="138.696"
   cy="94.420998"
   r="15.841" />
	
	
		
	
	
<filter
   style="color-interpolation-filters:sRGB;"
   inkscape:label="Drop Shadow"
   id="filter3185"
   x="-0.065539892"
   y="-0.14744078"
   width="1.1379069"
   height="1.3255984"><feFlood
     flood-opacity="0.898039"
     flood-color="rgb(0,0,0)"
     result="flood"
     id="feFlood3175" /><feComposite
     in="flood"
     in2="SourceGraphic"
     operator="out"
     result="composite1"
     id="feComposite3177" /><feGaussianBlur
     in="composite1"
     stdDeviation="4"
     result="blur"
     id="feGaussianBlur3179" /><feOffset
     dx="1"
     dy="2"
     result="offset"
     id="feOffset3181" /><feComposite
     in="offset"
     in2="SourceGraphic"
     operator="atop"
     result="composite2"
     id="feComposite3183" /></filter></defs><rect
     style="display:none;opacity:1;fill:#22104e;fill-opacity:1;stroke-width:0.251681"
     id="rect1919"
     width="115.11505"
     height="133.43149"
     x="16.64744"
     y="1.5060015" /><rect
     style="fill:#800000;fill-rule:evenodd;stroke:#000000;stroke-width:0.265;stroke-linejoin:round;stroke-dasharray:none;stroke-opacity:1"
     id="rect1244"
     width="125.5016"
     height="124.82321"
     x="6.7838702"
     y="6.7838702"
     ry="14.924515" /><g
     aria-label="RD"
     transform="matrix(0.7127706,0,0,1.4029759,2.4151073,3.622661)"
     id="text1035"
     style="font-weight:300;font-size:95.6107px;font-family:'URW Bookman';-inkscape-font-specification:'URW Bookman, Light';fill:#dbe3de;stroke-width:18.8982;filter:url(#filter3185)"><path
       d="m 71.403147,50.003165 c 10.039124,-2.294657 15.966987,-8.891796 15.966987,-17.68798 0,-6.023475 -3.537596,-11.760117 -8.796184,-14.245995 C 73.889025,15.870144 68.056773,14.914037 58.973756,14.914037 H 21.781193 v 7.840077 l 1.912214,0.191222 c 5.54542,0.764885 6.597138,2.007825 6.501527,8.031299 v 32.985692 c 0.09561,6.023474 -0.956107,7.266414 -6.501527,8.031299 l -1.912214,0.191222 v 7.840077 H 55.340549 V 72.184848 L 53.428335,71.993626 C 47.882914,71.228741 46.831197,69.985801 46.926807,63.962327 V 52.010989 h 4.971757 l 20.651912,28.013936 26.79382,-2.9e-5 -0.574159,-7.840048 C 93.224716,71.706794 87.178913,70.559466 83.450096,65.587709 Z M 46.926807,42.927973 V 28.108314 c 0,-2.294657 0.191222,-2.772711 1.242939,-3.346375 1.24294,-0.669275 3.155154,-0.956107 6.310307,-0.956107 5.258588,0 8.12691,0.669275 10.230345,2.390268 1.912214,1.625382 3.155153,4.302481 3.155153,7.075192 0,3.250764 -1.720992,6.214695 -4.589314,7.744467 -2.390267,1.338549 -5.067367,1.912214 -9.56107,1.912214 z"
       style="font-weight:600;-inkscape-font-specification:'URW Bookman, Semi-Bold';fill:#dbe3de"
       id="path1091"
       sodipodi:nodetypes="cscsccccccccccccccccccccscscscsc" /><path
       d="m 98.652279,22.754114 1.912211,0.191222 c 5.54542,0.764885 6.59714,2.007825 6.50153,8.031299 v 32.985692 c 0.0956,6.023474 -0.95611,7.266414 -6.50153,8.031299 l -1.912211,0.191222 v 7.840048 l 32.603251,2.9e-5 c 15.48893,1.4e-5 22.94657,-2.581489 29.44809,-10.325956 4.97176,-5.736642 7.55325,-13.289887 7.55325,-21.990461 0,-10.517177 -3.63321,-19.217751 -10.7084,-25.241226 -6.97958,-6.119085 -12.33378,-7.553245 -28.49199,-7.553245 H 98.652279 Z m 25.145611,5.832253 c 0,-4.015649 1.43416,-5.067367 6.88397,-5.067367 11.95134,0 19.21776,8.891795 19.21776,23.520233 0,14.915269 -7.74447,24.380729 -19.69581,24.380729 -2.48588,0 -4.58931,-0.478054 -5.54542,-1.242939 -0.8605,-0.669275 -0.8605,-0.956107 -0.8605,-5.545421 z"
       style="font-weight:600;-inkscape-font-specification:'URW Bookman, Semi-Bold';fill:#dbe3de"
       id="path1093"
       sodipodi:nodetypes="cccccccscscsccsssscss" /></g></svg>
