<?xml version="1.0" encoding="UTF-8" standalone="no"?>
<!-- Created with Inkscape (http://www.inkscape.org/) -->

<svg
   width="600"
   height="400"
   viewBox="0 0 158.75 105.83333"
   version="1.1"
   id="svg135"
   xml:space="preserve"
   inkscape:version="1.2.2 (b0a8486541, 2022-12-01)"
   sodipodi:docname="ToobAmp.svg"
   xmlns:inkscape="http://www.inkscape.org/namespaces/inkscape"
   xmlns:sodipodi="http://sodipodi.sourceforge.net/DTD/sodipodi-0.dtd"
   xmlns:xlink="http://www.w3.org/1999/xlink"
   xmlns="http://www.w3.org/2000/svg"
   xmlns:svg="http://www.w3.org/2000/svg"><sodipodi:namedview
     id="namedview137"
     pagecolor="#ffffff"
     bordercolor="#000000"
     borderopacity="0.25"
     inkscape:showpageshadow="2"
     inkscape:pageopacity="0.0"
     inkscape:pagecheckerboard="0"
     inkscape:deskcolor="#d1d1d1"
     inkscape:document-units="mm"
     showgrid="false"
     showguides="false"
     inkscape:zoom="0.98898724"
     inkscape:cx="-0.5055677"
     inkscape:cy="532.36278"
     inkscape:window-width="1867"
     inkscape:window-height="1011"
     inkscape:window-x="0"
     inkscape:window-y="0"
     inkscape:window-maximized="1"
     inkscape:current-layer="svg135"><inkscape:page
       x="0"
       y="0"
       width="158.75"
       height="105.83333"
       id="page548"
       inkscape:export-filename="pipedal.png"
       inkscape:export-xdpi="96"
       inkscape:export-ydpi="96" /><inkscape:page
       x="220"
       y="0"
       width="677.33331"
       height="381"
       id="page550" /></sodipodi:namedview><defs
     id="defs132"><clipPath
   clipPathUnits="userSpaceOnUse"
   id="clipPath518"><path
     d="M 0,1080 H 1920 V 0 H 0 Z"
     id="path516" /></clipPath><clipPath
   clipPathUnits="userSpaceOnUse"
   id="clipPath538"><path
     d="M 0,1080 H 1920 V 0 H 0 Z"
     id="path536" /></clipPath><path
   id="SVGID_1_"
   d="m 545,178 c 0,6.075 -4.925,11 -11,11 H -18 c -6.075,0 -11,-4.925 -11,-11 v -296 c 0,-6.075 4.925,-11 11,-11 h 552 c 6.075,0 11,4.925 11,11 z" /><circle
   id="SVGID_3_"
   cx="138.696"
   cy="94.420998"
   r="15.841" />
	
	
		
	
	
<filter
   style="color-interpolation-filters:sRGB;"
   inkscape:label="Drop Shadow"
   id="filter2285"
   x="-0.018976242"
   y="-0.10878784"
   width="1.0616728"
   height="1.2629039"><feFlood
     flood-opacity="0.498039"
     flood-color="rgb(0,0,0)"
     result="flood"
     id="feFlood2275" /><feComposite
     in="flood"
     in2="SourceGraphic"
     operator="out"
     result="composite1"
     id="feComposite2277" /><feGaussianBlur
     in="composite1"
     stdDeviation="1"
     result="blur"
     id="feGaussianBlur2279" /><feOffset
     dx="3"
     dy="1"
     result="offset"
     id="feOffset2281" /><feComposite
     in="offset"
     in2="SourceGraphic"
     operator="atop"
     result="composite2"
     id="feComposite2283" /></filter></defs><g
     inkscape:label="Layer 1"
     inkscape:groupmode="layer"
     id="layer1" /><rect
     fill="#6750a4"
     width="270.93332"
     height="132.82083"
     id="rect1022"
     x="-21.443653"
     y="-1.7763568e-15"
     style="stroke-width:0.264583" /><image
     display="none"
     overflow="visible"
     width="151.80469"
     height="145.85156"
     xlink:href="../../../BestBackup/AndroidStudio/PiPedal/artwork/GooglePlay/D19B34CC.jpg"
     id="image1024"
     x="4.1264954"
     y="-77.522919"
     style="opacity:0.3">
	</image><g
     id="g2165"
     transform="translate(-8.8284759,55.111092)"
     style="filter:url(#filter2285)"><text
       xml:space="preserve"
       style="font-style:italic;font-weight:bold;font-size:13.9827px;font-family:Timana;-inkscape-font-specification:'Timana Bold Italic';fill:#686868;stroke:#7f7f7f;stroke-width:0.664491;stop-color:#000000"
       x="41.749718"
       y="39.364376"
       id="text236"><tspan
         sodipodi:role="line"
         id="tspan234"
         style="font-style:italic;font-variant:normal;font-weight:900;font-stretch:normal;font-size:13.9827px;font-family:Roboto;-inkscape-font-specification:'Roboto, Heavy Italic';font-variant-ligatures:normal;font-variant-caps:normal;font-variant-numeric:normal;font-variant-east-asian:normal;fill:#e0e0e0;fill-opacity:0.752941;stroke:none;stroke-width:0.664488"
         x="41.749718"
         y="39.364376">TooB LV2 Plugins</tspan></text><path
       id="path1348"
       style="color:#000000;fill:#e0e0e0;fill-opacity:0.752941;stroke-width:2.33154;-inkscape-stroke:none"
       d="m 30.167211,22.858288 c -4.388517,0.03431 -7.959358,3.630866 -7.959277,8.019519 v 4.921835 0.01446 0.01324 0.0229 c 0.01056,2.072817 0.557776,4.046163 1.739811,5.565229 0.297944,0.382895 0.63991,0.731485 1.020513,1.039789 v -7.421901 h 0.0084 v -4.155547 c -5.3e-5,-2.901329 2.308558,-5.232898 5.209797,-5.25558 2.912401,-0.02234 5.265781,2.287816 5.29534,5.200156 v 0.05542 5.464021 c 0,1.257079 -0.381927,1.969901 -1.038586,2.504895 -0.656659,0.534994 -1.717073,0.883159 -3.132624,0.883159 h -1.083223 v 5.189469 h 2.467602 v -2.848435 c 1.259977,-0.191722 2.567161,-0.321423 3.497696,-1.07955 1.298933,-1.058271 2.053073,-2.732743 2.053073,-4.649538 v -5.464021 -0.07832 -0.0036 C 38.201013,26.391106 34.572055,22.824533 30.167171,22.8583 Z"
       sodipodi:nodetypes="ccccccscccccccsssccccsscccc" /><g
       aria-label="B"
       id="text1054"
       style="font-style:italic;font-weight:900;font-size:6.35px;font-family:Roboto;-inkscape-font-specification:'Roboto, Heavy Italic';fill:#e0e0e0;fill-opacity:0.752941;stroke-width:0.285001;stop-color:#000000"
       transform="matrix(2.331538,0,0,2.331538,5.4808642,17.545392)"><path
         id="path1085"
         style="font-style:normal;-inkscape-font-specification:'Roboto, Heavy';stroke-width:0.285"
         d="M 8.865092,5.8580404 V 8.9958333 11.74073 H 9.9533976 V 8.9958333 h 0.7441404 c 0.549837,-0.00413 0.964283,-0.116789 1.243335,-0.3379638 0.281119,-0.223242 0.42168,-0.5560389 0.42168,-0.9983887 0,-0.2439125 -0.06305,-0.4506186 -0.189136,-0.6201172 -0.12609,-0.1694982 -0.306958,-0.2852537 -0.542602,-0.3472656 0.208772,-0.078548 0.366902,-0.2005048 0.474389,-0.3658692 0.107487,-0.1653644 0.161231,-0.3648358 0.161231,-0.598413 0,-0.4051429 -0.151929,-0.7141686 -0.455786,-0.9270752 C 11.508859,4.5878339 11.18123,4.4813802 10.486698,4.4813802 H 9.9533976 c -1.0883054,0 -1.0883056,1.029605 -1.0883056,1.3766602 z m 1.0883056,-0.022757 c 0,-0.3308701 0.1341694,-0.4768142 0.3334184,-0.4952 l 0.199882,-0.018444 c 0.203885,-0.018814 0.420647,0.042375 0.530201,0.127124 0.109553,0.082682 0.164331,0.2191083 0.164331,0.4092774 0,0.1653644 -0.05064,0.2904216 -0.151929,0.3751709 -0.101285,0.08475 -0.270784,0.1281579 -0.508496,0.1302246 H 9.9533976 Z m 0,1.2412875 h 0.7627444 c 0.374137,0.00207 0.561206,0.1912032 0.561206,0.5674073 0,0.1632973 -0.05271,0.2904217 -0.15813,0.381372 -0.105419,0.088883 -0.256315,0.1333252 -0.452686,0.1333252 H 9.9533976 Z"
         sodipodi:nodetypes="cccccccsscssczccssscssccsccscscc" /></g></g></svg>
