<?xml version="1.0" encoding="UTF-8" standalone="no"?>
<!-- Created with Inkscape (http://www.inkscape.org/) -->

<svg
   width="512"
   height="512"
   viewBox="0 0 135.46669 135.46669"
   version="1.1"
   id="svg135"
   xml:space="preserve"
   inkscape:version="1.2.2 (b0a8486541, 2022-12-01)"
   sodipodi:docname="ToobIcon.svg"
   inkscape:export-filename="../public/img/ToobAmp.png"
   inkscape:export-xdpi="96"
   inkscape:export-ydpi="96"
   xmlns:inkscape="http://www.inkscape.org/namespaces/inkscape"
   xmlns:sodipodi="http://sodipodi.sourceforge.net/DTD/sodipodi-0.dtd"
   xmlns="http://www.w3.org/2000/svg"
   xmlns:svg="http://www.w3.org/2000/svg"><sodipodi:namedview
     id="namedview137"
     pagecolor="#ffffff"
     bordercolor="#000000"
     borderopacity="0.25"
     inkscape:showpageshadow="2"
     inkscape:pageopacity="0.0"
     inkscape:pagecheckerboard="0"
     inkscape:deskcolor="#d1d1d1"
     inkscape:document-units="mm"
     showgrid="false"
     showguides="false"
     inkscape:zoom="0.78003655"
     inkscape:cx="127.55813"
     inkscape:cy="458.31186"
     inkscape:window-width="1867"
     inkscape:window-height="1011"
     inkscape:window-x="0"
     inkscape:window-y="0"
     inkscape:window-maximized="1"
     inkscape:current-layer="svg135"><inkscape:page
       x="0"
       y="0"
       width="135.46669"
       height="135.46669"
       id="page548"
       inkscape:export-filename="../public/img/ToobAmp.png"
       inkscape:export-xdpi="96"
       inkscape:export-ydpi="96" /><inkscape:page
       x="220"
       y="0"
       width="677.33331"
       height="381"
       id="page550" /></sodipodi:namedview><defs
     id="defs132"><clipPath
   clipPathUnits="userSpaceOnUse"
   id="clipPath518"><path
     d="M 0,1080 H 1920 V 0 H 0 Z"
     id="path516" /></clipPath><clipPath
   clipPathUnits="userSpaceOnUse"
   id="clipPath538"><path
     d="M 0,1080 H 1920 V 0 H 0 Z"
     id="path536" /></clipPath><path
   id="SVGID_1_"
   d="m 545,178 c 0,6.075 -4.925,11 -11,11 H -18 c -6.075,0 -11,-4.925 -11,-11 v -296 c 0,-6.075 4.925,-11 11,-11 h 552 c 6.075,0 11,4.925 11,11 z" /><circle
   id="SVGID_3_"
   cx="138.696"
   cy="94.420998"
   r="15.841" />
	
	
		
	
	
</defs><rect
     style="opacity:1;fill:#22104e;fill-opacity:1;stroke-width:0.251681"
     id="rect1919"
     width="115.11505"
     height="133.43149"
     x="16.64744"
     y="1.5060015" /><g
     id="g1030"
     style="opacity:1;fill:#f9f9f9"
     transform="matrix(6.7186151,0,0,6.7186151,-82.637082,-557.59903)"><path
       id="path1348"
       style="color:#000000;fill:#f9f9f9;fill-opacity:1;stroke-width:1.74802;-inkscape-stroke:none"
       d="m 23.490478,84.687837 c -3.290193,0.02573 -5.967352,2.722162 -5.967291,6.012458 v 3.690036 0.01084 0.01 0.01713 c 0.0079,1.554048 0.41818,3.033521 1.304384,4.172408 0.223377,0.287066 0.479759,0.548414 0.765108,0.779558 v -5.564443 h 0.0063 v -3.115529 c -4.1e-5,-2.175207 1.730788,-3.923248 3.905929,-3.940255 2.183508,-0.01678 3.947902,1.71524 3.970063,3.898703 v 0.04155 4.096528 c 0,0.942467 -0.286341,1.476889 -0.778657,1.877989 -0.492315,0.4011 -1.287337,0.662129 -2.348615,0.662129 h -0.812123 v 3.890681 h 1.85003 v -2.135543 c 0.94464,-0.143739 1.924672,-0.24098 2.62232,-0.809369 0.973846,-0.793414 1.539246,-2.048813 1.539246,-3.485887 v -4.096528 -0.05872 -0.0026 c -0.03353,-3.302389 -2.754259,-5.976347 -6.056722,-5.951032 z"
       sodipodi:nodetypes="ccccccscccccccsssccccsscccc" /><g
       aria-label="B"
       id="text1054"
       style="font-style:italic;font-weight:900;font-size:6.35px;font-family:Roboto;-inkscape-font-specification:'Roboto, Heavy Italic';fill:#f9f9f9;fill-opacity:1;stroke-width:0.285001;stop-color:#000000"
       transform="matrix(1.7480188,0,0,1.7480188,4.9824362,80.704613)"><path
         id="path1085"
         style="font-style:normal;-inkscape-font-specification:'Roboto, Heavy';fill:#f9f9f9;fill-opacity:1;stroke-width:0.28499;stroke-dasharray:none"
         d="M 8.865092,5.8580404 V 8.9958333 11.74073 H 9.9533976 V 8.9958333 h 0.7441404 c 0.549837,-0.00413 0.964283,-0.116789 1.243335,-0.3379638 0.281119,-0.223242 0.42168,-0.5560389 0.42168,-0.9983887 0,-0.2439125 -0.06305,-0.4506186 -0.189136,-0.6201172 -0.12609,-0.1694982 -0.306958,-0.2852537 -0.542602,-0.3472656 0.208772,-0.078548 0.366902,-0.2005048 0.474389,-0.3658692 0.107487,-0.1653644 0.161231,-0.3648358 0.161231,-0.598413 0,-0.4051429 -0.151929,-0.7141686 -0.455786,-0.9270752 C 11.508859,4.5878339 11.18123,4.4813802 10.486698,4.4813802 H 9.9533976 c -1.0883054,0 -1.0883056,1.029605 -1.0883056,1.3766602 z m 1.0883056,-0.022757 c 0,-0.3308701 0.1341694,-0.4768142 0.3334184,-0.4952 l 0.199882,-0.018444 c 0.203885,-0.018814 0.420647,0.042375 0.530201,0.127124 0.109553,0.082682 0.164331,0.2191083 0.164331,0.4092774 0,0.1653644 -0.05064,0.2904216 -0.151929,0.3751709 -0.101285,0.08475 -0.270784,0.1281579 -0.508496,0.1302246 H 9.9533976 Z m 0,1.2412875 h 0.7627444 c 0.374137,0.00207 0.561206,0.1912032 0.561206,0.5674073 0,0.1632973 -0.05271,0.2904217 -0.15813,0.381372 -0.105419,0.088883 -0.256315,0.1333252 -0.452686,0.1333252 H 9.9533976 Z"
         sodipodi:nodetypes="cccccccsscssczccssscssccsccscscc" /></g></g><rect
     style="opacity:1;fill:#f9f9f9;fill-opacity:1;stroke-width:0.264583"
     id="rect1923"
     width="13.904121"
     height="48.449974"
     x="35.094467"
     y="74.643326" /><rect
     style="opacity:1;fill:#000000;fill-opacity:1;stroke-width:3.34701;stroke-dasharray:none"
     id="rect2599"
     width="9.1582241"
     height="0.33919352"
     x="124.48402"
     y="52.235802" /><rect
     style="opacity:1;fill:#232323;fill-opacity:1;stroke-width:3.34701;stroke-dasharray:none"
     id="rect6345"
     width="6.7838702"
     height="3.0527415"
     x="26.117901"
     y="124.14482" /><rect
     style="opacity:1;fill:#232323;fill-opacity:1;stroke-width:3.34701;stroke-dasharray:none"
     id="rect6347"
     width="11.871773"
     height="0.33919352"
     x="113.29063"
     y="126.85838" /></svg>
