<?xml version="1.0" encoding="UTF-8" standalone="no"?>
<svg
   xmlns:dc="http://purl.org/dc/elements/1.1/"
   xmlns:cc="http://creativecommons.org/ns#"
   xmlns:rdf="http://www.w3.org/1999/02/22-rdf-syntax-ns#"
   xmlns:svg="http://www.w3.org/2000/svg"
   xmlns="http://www.w3.org/2000/svg"
   version="1.1"
   id="Layer_1"
   x="0px"
   y="0px"
   width="1024px"
   height="1024px"
   viewBox="0 0 1024 1024"
   enable-background="new 0 0 1024 1024"
   xml:space="preserve"><metadata
   id="metadata203"><rdf:RDF><cc:Work
       rdf:about=""><dc:format>image/svg+xml</dc:format><dc:type
         rdf:resource="http://purl.org/dc/dcmitype/StillImage" /><dc:title></dc:title></cc:Work></rdf:RDF></metadata><defs
   id="defs201" />

<g
   id="g192">
	<path
   fill="#F04040"
   d="M818.519,579.214c-4.681,12.703-10.952,23.422-18.839,32.154c-7.887,8.734-16.65,15.88-26.288,21.437   c-9.642,5.559-19.719,9.527-30.233,11.909c-10.517,2.382-20.745,3.574-30.672,3.574c-19.867,0-37.545-4.094-53.017-12.307   c-14.952-7.917-27.698-18.451-38.285-31.56l-46.579,148.721c4.966,2.604,10.021,5.107,15.196,7.488   c36.217,16.672,75.938,25.009,119.179,25.009c24.536,0,49.65-2.915,75.363-8.732c25.701-5.819,49.951-14.291,72.734-25.407   c22.784-11.115,43.076-24.872,60.903-41.284c17.813-16.4,31.108-34.935,39.872-55.576L818.519,579.214z"
   id="path188" />
	<path
   fill="#F04040"
   d="M700.328,351.717c3.389-0.236,6.852-0.366,10.406-0.366c9.338,0,19.564,1.067,30.67,3.177   c11.092,2.12,21.606,5.83,31.547,11.115c9.928,5.297,19.129,12.443,27.605,21.436c8.461,9.007,15.336,20.382,20.593,34.14   l130.569-84.158c-19.866-37.043-50.539-66.816-92.012-89.319c-34.123-18.498-72.99-29.376-116.586-32.661L700.328,351.717z"
   id="path190" />
</g>
<polygon
   fill="#E0E0E0"
   points="216.732,215 48,215 221.973,781 505.525,781 549.629,639 344.867,639 "
   id="polygon194"
   style="fill:#808080" />
<polygon
   fill="#E0E0E0"
   points="535.952,215 469.479,435.216 399.46,215 259.373,215 377.44,605.195 556.342,605.809 678.816,215   "
   id="polygon196"
   style="fill:#808080" />
</svg>
